<svg width="688" height="393" viewBox="0 0 688 393" fill="none" xmlns="http://www.w3.org/2000/svg">
<path d="M46.746 44.824H41.2402V39.5208H46.746C47.4163 39.5208 47.9748 39.7475 48.4217 40.2007C48.9004 40.6238 49.1398 41.1526 49.1398 41.7871V42.5577C49.1398 43.1922 48.9004 43.7361 48.4217 44.1894C47.9748 44.6124 47.4163 44.824 46.746 44.824Z" fill="#35372E"/>
<path d="M47.3205 56.79H41.2402V51.4415H47.3205C47.9908 51.4415 48.5493 51.6681 48.9962 52.1214C49.4749 52.5444 49.7143 53.0732 49.7143 53.7078V54.5237C49.7143 55.1582 49.4749 55.7021 48.9962 56.1554C48.5493 56.5784 47.9908 56.79 47.3205 56.79Z" fill="#35372E"/>
<path d="M183.113 46.0024H178.708V40.0194H183.113C184.038 40.0194 184.74 40.3065 185.219 40.8806C185.73 41.4245 185.985 42.044 185.985 42.739V43.2829C185.985 43.9779 185.73 44.6124 185.219 45.1866C184.709 45.7305 184.006 46.0024 183.113 46.0024Z" fill="#35372E"/>
<path d="M339.299 46.0024H334.894V40.0194H339.299C340.224 40.0194 340.927 40.3065 341.405 40.8806C341.916 41.4245 342.171 42.044 342.171 42.739V43.2829C342.171 43.9779 341.916 44.6124 341.405 45.1866C340.895 45.7305 340.192 46.0024 339.299 46.0024Z" fill="#35372E"/>
<path fill-rule="evenodd" clip-rule="evenodd" d="M688 0H0V64H97.8646C96.655 63.6978 95.4976 63.2435 94.3925 62.637C92.2221 61.3981 90.4826 59.7512 89.174 57.6965C87.8973 55.6115 87.2589 53.3301 87.2589 50.8523V46.1384C87.2589 43.6606 87.8973 41.3943 89.174 39.3395C90.4826 37.2545 92.2221 35.6077 94.3925 34.399C96.5948 33.1601 99.0046 32.5407 101.622 32.5407H104.303C106.92 32.5407 109.314 33.1601 111.484 34.399C113.687 35.6077 115.426 37.2545 116.703 39.3395C118.012 41.3943 118.666 43.6606 118.666 46.1384V50.8523C118.666 53.3301 118.012 55.6115 116.703 57.6965C115.426 59.7512 113.687 61.3981 111.484 62.637C110.395 63.2435 109.25 63.6978 108.048 64H131.152C129.974 63.6978 128.857 63.2435 127.8 62.637C125.725 61.4283 124.097 59.7815 122.916 57.6965C121.735 55.6115 121.145 53.3301 121.145 50.8523V46.0477C121.145 43.5397 121.783 41.2583 123.06 39.2036C124.368 37.1186 126.188 35.4717 128.518 34.263C130.848 33.0544 133.481 32.45 136.417 32.45H137.758C140.12 32.45 142.322 32.9335 144.365 33.9004C146.408 34.8674 148.035 36.2121 149.248 37.9344C150.461 39.6568 151.068 41.6058 151.068 43.7815V44.0987H141.779C141.779 42.5577 141.333 41.4094 140.439 40.654C139.545 39.8985 138.396 39.5208 136.992 39.5208H136.752C135.412 39.5208 134.279 39.959 133.353 40.8353C132.428 41.7116 131.965 42.7843 131.965 44.0534V52.8013C131.965 54.0704 132.428 55.1431 133.353 56.0194C134.279 56.8957 135.412 57.3339 136.752 57.3339H137.614C138.955 57.3339 139.976 56.941 140.678 56.1554C141.412 55.3395 141.779 54.2064 141.779 52.756H136.226V46.5917H151.068V57.4698C151.068 59.857 151.115 61.4283 151.211 62.1837L151.403 63.9968H146.04L144.7 60.688C143.679 61.7758 142.29 62.6823 140.535 63.4075C139.944 63.6459 139.351 63.8434 138.756 64H389.191C388.299 63.7962 387.459 63.5232 386.672 63.1809C384.725 62.3348 383.208 61.1412 382.123 59.6002C381.07 58.0289 380.543 56.2007 380.543 54.1157V32.9033H390.645V53.9798C390.645 54.9769 391.012 55.7928 391.746 56.4274C392.512 57.0619 393.438 57.3792 394.523 57.3792C395.608 57.3792 396.518 57.0619 397.252 56.4274C398.018 55.7928 398.401 54.9769 398.401 53.9798V32.9033H408.455V54.1157C408.455 56.2007 407.913 58.0289 406.828 59.6002C405.774 61.1412 404.274 62.3348 402.327 63.1809C401.54 63.5232 400.7 63.7962 399.808 64H522.094C521.433 63.7873 520.87 63.4991 520.407 63.1356C519.29 62.229 518.731 60.7182 518.731 58.603C518.731 56.6087 518.46 55.0071 517.917 53.7985C517.407 52.5596 516.258 51.9401 514.47 51.9401H511.693V63.9968H501.879V32.9033H520.311C521.875 32.9033 523.343 33.2357 524.716 33.9004C526.12 34.535 527.253 35.4415 528.115 36.62C528.977 37.7682 529.408 39.0978 529.408 40.6087C529.408 41.6965 529.136 42.7692 528.594 43.8268C528.083 44.8844 527.381 45.7909 526.487 46.5463C525.594 47.3018 524.604 47.7701 523.519 47.9514V48.1781C525.274 48.6917 526.583 49.6587 527.445 51.0789C528.338 52.4689 528.785 54.1611 528.785 56.1554C528.785 57.5756 528.929 58.7994 529.216 59.8268C529.503 60.824 530.174 61.4585 531.227 61.7305V63.5888C530.82 63.7479 530.379 63.885 529.903 64H557.017C555.796 63.7287 554.632 63.3348 553.526 62.8183C551.227 61.7305 549.408 60.1592 548.068 58.1044C546.727 56.0496 546.057 53.6323 546.057 50.8523V46.0477C546.057 43.4188 546.727 41.077 548.068 39.0223C549.44 36.9373 551.259 35.3206 553.526 34.1724C555.792 33.0241 558.249 32.45 560.898 32.45H562.239C564.888 32.45 567.25 32.9486 569.325 33.9458C571.431 34.9127 573.091 36.3934 574.304 38.3877C575.517 40.3518 576.123 42.7692 576.123 45.6398H566.692V44.0534C566.692 42.6634 566.229 41.5605 565.303 40.7446C564.409 39.9288 563.276 39.5208 561.904 39.5208H561.664C560.324 39.5208 559.191 39.959 558.265 40.8353C557.34 41.7116 556.877 42.7843 556.877 44.0534V52.8013C556.877 54.0704 557.34 55.1431 558.265 56.0194C559.191 56.8957 560.324 57.3339 561.664 57.3339H562.335C563.707 57.3339 564.84 56.941 565.734 56.1554C566.66 55.3395 567.122 54.2215 567.122 52.8013V51.3055H576.123C576.123 53.9646 575.533 56.2914 574.352 58.2857C573.203 60.28 571.607 61.806 569.564 62.8636C568.609 63.3579 567.595 63.7367 566.522 64H588.865C587.655 63.6978 586.498 63.2435 585.393 62.637C583.223 61.3981 581.483 59.7512 580.174 57.6965C578.898 55.6115 578.259 53.3301 578.259 50.8523V46.1384C578.259 43.6606 578.898 41.3943 580.174 39.3395C581.483 37.2545 583.223 35.6077 585.393 34.399C587.595 33.1601 590.005 32.5407 592.622 32.5407H595.303C597.921 32.5407 600.315 33.1601 602.485 34.399C604.687 35.6077 606.427 37.2545 607.703 39.3395C609.012 41.3943 609.666 43.6606 609.666 46.1384V50.8523C609.666 53.3301 609.012 55.6115 607.703 57.6965C606.427 59.7512 604.687 61.3981 602.485 62.637C601.396 63.2435 600.25 63.6978 599.049 64H688V0ZM54.3105 33.9458C53.0019 33.2508 51.5656 32.9033 50.0016 32.9033H32V63.9968H50.2889C51.9486 63.9968 53.4647 63.6341 54.8371 62.9089C56.2415 62.1535 57.3427 61.1412 58.1406 59.8721C58.9705 58.603 59.3854 57.213 59.3854 55.7021C59.3854 51.4415 57.2948 48.8579 53.1136 47.9514V47.7701C54.8052 47.2867 56.1458 46.4859 57.1352 45.3679C58.1247 44.2498 58.6194 42.6332 58.6194 40.518C58.6194 39.128 58.2364 37.8589 57.4703 36.7106C56.7043 35.5322 55.651 34.6105 54.3105 33.9458ZM85.0113 56.382H73.0901V32.9033H62.9402V63.9968H85.9689L85.0113 56.382ZM164.1 55.7021V63.9968H154.956V55.7021H164.1ZM191.156 34.1724C189.624 33.3263 187.948 32.9033 186.129 32.9033H168.654V63.9968H178.708V52.9373H186.129C187.948 52.9373 189.624 52.5142 191.156 51.6681C192.72 50.8221 193.949 49.6738 194.842 48.2234C195.736 46.7427 196.183 45.1412 196.183 43.4188V42.4217C196.183 40.6993 195.736 39.1129 194.842 37.6625C193.949 36.1818 192.72 35.0185 191.156 34.1724ZM226.945 63.9968H216.891V51.8948H209.135V63.9968H199.033V32.9033H209.087V44.3707H216.843V32.9033H226.945V63.9968ZM244.96 39.5662H248.837V32.9033H230.932V39.5662H234.81V57.2885H230.932V63.9968H248.837V57.2885H244.96V39.5662ZM262.975 56.382H274.896L275.854 63.9968H252.825V32.9033H262.975V56.382ZM300.46 56.382H288.538V32.9033H278.389V63.9968H301.417L300.46 56.382ZM320.852 39.5662H316.974V57.2885H320.852V63.9968H302.947V57.2885H306.825V39.5662H302.947V32.9033H320.852V39.5662ZM347.342 34.1724C345.81 33.3263 344.134 32.9033 342.315 32.9033H324.84V63.9968H334.894V52.9373H342.315C344.134 52.9373 345.81 52.5142 347.342 51.6681C348.906 50.8221 350.135 49.6738 351.029 48.2234C351.922 46.7427 352.369 45.1412 352.369 43.4188V42.4217C352.369 40.6993 351.922 39.1129 351.029 37.6625C350.135 36.1818 348.906 35.0185 347.342 34.1724ZM365.369 56.382H377.29L378.248 63.9968H355.219V32.9033H365.369V56.382ZM437.781 40.382H429.45V63.9968H419.492V40.382H411.162V32.9033H437.781V40.382ZM458.604 63.9968H468.658V32.9033H458.556V44.3707H450.8V32.9033H440.746V63.9968H450.848V51.8948H458.604V63.9968ZM497.349 40.0647H483.513V44.5973H496.822V51.5322H483.513V56.5633H497.349L498.307 63.9968H473.65V32.9033H498.307L497.349 40.0647ZM542.748 55.7021V63.9968H533.604V55.7021H542.748ZM645.946 63.9968H656V32.9033H639.435L634.791 49.4925H634.599L629.859 32.9033H613.39V63.9968H622.534V44.0534H622.774L628.471 63.9968H640.009L645.754 44.0534H645.946V63.9968Z" fill="#35372E"/>
<path d="M102.867 39.5208C101.526 39.5208 100.393 39.959 99.4674 40.8353C98.5418 41.7116 98.079 42.7843 98.079 44.0534V52.8013C98.079 54.0704 98.5418 55.1431 99.4674 56.0194C100.393 56.8957 101.526 57.3339 102.867 57.3339H103.106C104.447 57.3339 105.58 56.8957 106.505 56.0194C107.431 55.1431 107.894 54.0704 107.894 52.8013V44.0534C107.894 42.7843 107.431 41.7116 106.505 40.8353C105.58 39.959 104.447 39.5208 103.106 39.5208H102.867Z" fill="#35372E"/>
<path d="M516.768 45.0053H511.693V40.0194H516.768C517.439 40.0194 517.997 40.246 518.444 40.6993C518.923 41.1223 519.162 41.6511 519.162 42.2857V42.739C519.162 43.3735 518.923 43.9174 518.444 44.3707C517.997 44.7937 517.439 45.0053 516.768 45.0053Z" fill="#35372E"/>
<path d="M593.867 39.5208C592.527 39.5208 591.393 39.959 590.468 40.8353C589.542 41.7116 589.079 42.7843 589.079 44.0534V52.8013C589.079 54.0704 589.542 55.1431 590.468 56.0194C591.393 56.8957 592.527 57.3339 593.867 57.3339H594.106C595.447 57.3339 596.58 56.8957 597.506 56.0194C598.431 55.1431 598.894 54.0704 598.894 52.8013V44.0534C598.894 42.7843 598.431 41.7116 597.506 40.8353C596.58 39.959 595.447 39.5208 594.106 39.5208H593.867Z" fill="#35372E"/>
<path d="M0 199.504V74.1397H38.484V98.5715H19.3514V118.516H37.5001V142.663H19.3514V199.504H0Z" fill="#35372E"/>
<path d="M43.5963 199.504V74.1397H73.1153C78.0352 74.1397 81.7524 75.6118 84.2669 78.5559C86.7815 81.4526 88.4579 85.5365 89.2961 90.8075C90.1707 96.031 90.6081 102.18 90.6081 109.256C90.6081 116.094 89.9339 121.555 88.5855 125.639C87.2735 129.723 84.7771 132.548 81.0964 134.115C84.1212 134.922 86.2349 136.893 87.4375 140.027C88.6766 143.114 89.2961 147.126 89.2961 152.065V199.504H70.3274V150.427C70.3274 146.77 69.7443 144.515 68.5781 143.66C67.4484 142.758 65.608 142.307 63.057 142.307V199.504H43.5963ZM63.1663 120.582H67.8128C70.4732 120.582 71.8034 116.806 71.8034 109.256C71.8034 104.365 71.5118 101.16 70.9287 99.64C70.3456 98.1204 69.2523 97.3606 67.6488 97.3606H63.1663V120.582Z" fill="#35372E"/>
<path d="M118.789 200.644C111.099 200.644 105.214 197.628 101.132 191.598C97.0869 185.519 95.0643 176.758 95.0643 165.314V105.766C95.0643 95.0338 97.0687 86.8898 101.077 81.3339C105.123 75.778 111.026 73 118.789 73C126.551 73 132.437 75.778 136.446 81.3339C140.491 86.8898 142.513 95.0338 142.513 105.766V165.314C142.513 176.758 140.473 185.519 136.391 191.598C132.346 197.628 126.478 200.644 118.789 200.644ZM118.953 177.565C121.868 177.565 123.326 173.885 123.326 166.525V105.338C123.326 99.1651 121.905 96.0785 119.062 96.0785C115.855 96.0785 114.252 99.2363 114.252 105.552V166.667C114.252 170.561 114.616 173.363 115.345 175.072C116.074 176.734 117.276 177.565 118.953 177.565Z" fill="#35372E"/>
<path d="M149.156 199.504V74.1397H168.945L177.801 134.186V74.1397H196.387V199.504H177.582L167.961 136.822V199.504H149.156Z" fill="#35372E"/>
<path d="M212.049 199.504V98.2154H200.624V74.1397H242.716V98.2154H231.291V199.504H212.049Z" fill="#35372E"/>
<path d="M246.954 199.504V74.1397H285.438V98.3578H266.524V122.79H284.673V146.367H266.524V175.072H286.695V199.504H246.954Z" fill="#35372E"/>
<path d="M291.971 199.504V74.1397H311.76L320.616 134.186V74.1397H339.202V199.504H320.397L310.776 136.822V199.504H291.971Z" fill="#35372E"/>
<path d="M346.61 199.504V74.1397H373.068C379.992 74.1397 385.203 76.6565 388.702 81.69C392.201 86.6761 393.95 93.9891 393.95 103.629V162.322C393.95 174.194 392.346 183.359 389.139 189.817C385.969 196.275 380.393 199.504 372.412 199.504H346.61ZM365.961 177.352H369.296C372.831 177.352 374.598 175.12 374.598 170.656V105.979C374.598 101.801 374.161 99.1176 373.287 97.9304C372.448 96.6958 370.717 96.0785 368.093 96.0785H365.961V177.352Z" fill="#35372E"/>
<path d="M417.539 201C411.562 201 406.861 197.985 403.435 191.954C400.046 185.923 398.351 177.613 398.351 167.023C398.351 159.473 398.862 153.205 399.882 148.219C400.939 143.233 402.397 139.078 404.255 135.753C406.114 132.429 408.246 129.533 410.651 127.063L410.214 125.639C408.683 120.7 407.335 115.999 406.169 111.535C405.039 107.024 404.474 102.394 404.474 97.6455C404.474 92.8494 405.257 88.5993 406.824 84.8954C408.392 81.1914 410.56 78.2948 413.33 76.2053C416.136 74.0685 419.343 73 422.951 73C426.522 73 429.766 74.021 432.681 76.0629C435.633 78.0573 437.983 81.0727 439.733 85.1091C441.482 89.1454 442.357 94.2502 442.357 100.423C442.357 107.119 441.391 112.723 439.459 117.234C437.564 121.745 434.704 126.09 430.877 130.269L436.125 147.506C438.275 140.431 441.373 134.946 445.418 131.052L453.016 146.509C448.789 150.925 445.254 158.12 442.411 168.092L452.032 199.504H433.446L431.314 192.737C429.893 195.017 427.98 196.964 425.575 198.578C423.206 200.193 420.527 201 417.539 201ZM421.639 95.4374C421.639 96.672 421.876 98.5003 422.349 100.922C422.823 103.296 423.935 107.428 425.684 113.316C426.376 112.366 426.996 110.871 427.542 108.829C428.089 106.787 428.362 103.985 428.362 100.423C428.362 96.767 428.016 94.2027 427.324 92.7307C426.668 91.2586 425.793 90.5225 424.7 90.5225C423.643 90.5225 422.86 91.0449 422.349 92.0896C421.876 93.0868 421.639 94.2027 421.639 95.4374ZM415.079 170.086C415.079 178.539 416.919 182.765 420.6 182.765C422.094 182.765 423.297 182.053 424.208 180.628C425.119 179.156 425.739 177.637 426.067 176.07L416.883 146.937C415.68 150.261 415.079 156.078 415.079 164.388V170.086Z" fill="#35372E"/>
<path d="M455.231 199.504L464.524 74.1397H497.159L506.288 199.504H488.085L486.718 179.275H475.129L473.927 199.504H455.231ZM476.496 159.259H485.242L481.033 95.5086H480.158L476.496 159.259Z" fill="#35372E"/>
<path d="M533.321 200.644C525.304 200.644 519.4 197.723 515.61 191.883C511.82 185.994 509.925 177.352 509.925 165.955V74.1397H528.62V164.958C528.62 167.047 528.711 169.065 528.893 171.012C529.075 172.912 529.495 174.479 530.151 175.713C530.806 176.948 531.863 177.565 533.321 177.565C534.815 177.565 535.89 176.972 536.546 175.785C537.202 174.55 537.603 172.959 537.749 171.012C537.931 169.065 538.022 167.047 538.022 164.958V74.1397H556.718V165.955C556.718 177.352 554.823 185.994 551.033 191.883C547.242 197.723 541.339 200.644 533.321 200.644Z" fill="#35372E"/>
<path d="M562.978 199.504V74.1397H589.436C596.36 74.1397 601.571 76.6565 605.07 81.69C608.568 86.6761 610.318 93.9891 610.318 103.629V162.322C610.318 174.194 608.714 183.359 605.507 189.817C602.337 196.275 596.761 199.504 588.78 199.504H562.978ZM582.329 177.352H585.664C589.199 177.352 590.966 175.12 590.966 170.656V105.979C590.966 101.801 590.529 99.1176 589.654 97.9304C588.816 96.6958 587.085 96.0785 584.461 96.0785H582.329V177.352Z" fill="#35372E"/>
<path d="M616.195 199.504V74.1397H634.781V199.504H616.195Z" fill="#35372E"/>
<path d="M664.274 200.644C656.584 200.644 650.699 197.628 646.617 191.598C642.572 185.519 640.549 176.758 640.549 165.314V105.766C640.549 95.0338 642.554 86.8898 646.563 81.3339C650.608 75.778 656.512 73 664.274 73C672.036 73 677.922 75.778 681.931 81.3339C685.976 86.8898 687.999 95.0338 687.999 105.766V165.314C687.999 176.758 685.958 185.519 681.876 191.598C677.831 197.628 671.964 200.644 664.274 200.644ZM664.438 177.565C667.353 177.565 668.811 173.885 668.811 166.525V105.338C668.811 99.1651 667.39 96.0785 664.547 96.0785C661.34 96.0785 659.737 99.2363 659.737 105.552V166.667C659.737 170.561 660.101 173.363 660.83 175.072C661.559 176.734 662.762 177.565 664.438 177.565Z" fill="#35372E"/>
<path d="M0 391.357V210.643H52.974V245.554H26.9385V280.772H51.9206V314.759H26.9385V356.138H54.7047V391.357H0Z" fill="#35372E"/>
<path d="M61.9676 391.357V210.643H89.207L101.397 297.201V210.643H126.981V391.357H101.096L87.8526 301V391.357H61.9676Z" fill="#35372E"/>
<path d="M164.493 393C145.581 393 136.125 374.518 136.125 337.554V259.621C136.125 225.874 146.961 209 168.632 209C177.561 209 184.409 211.464 189.174 216.393C193.94 221.253 197.226 228.372 199.032 237.75C200.838 247.128 201.741 258.56 201.741 272.045H175.856V256.027C175.856 252.125 175.454 248.874 174.652 246.272C173.899 243.603 172.294 242.268 169.836 242.268C166.776 242.268 164.744 243.671 163.741 246.478C162.788 249.284 162.311 252.365 162.311 255.719V343.304C162.311 348.164 162.763 352.134 163.666 355.214C164.619 358.226 166.45 359.732 169.159 359.732C171.968 359.732 173.824 358.226 174.727 355.214C175.68 352.134 176.157 348.095 176.157 343.098V317.326H169.083V286.112H201.44V391.357H190.83L186.315 376.161C181.7 387.387 174.426 393 164.493 393Z" fill="#35372E"/>
<path d="M209.229 391.357V210.643H234.813V391.357H209.229Z" fill="#35372E"/>
<path d="M243.807 391.357V210.643H271.046L283.236 297.201V210.643H308.82V391.357H282.935L269.692 301V391.357H243.807Z" fill="#35372E"/>
<path d="M319.018 391.357V210.643H371.992V245.554H345.956V280.772H370.939V314.759H345.956V356.138H373.723V391.357H319.018Z" fill="#35372E"/>
<path d="M380.986 391.357V210.643H433.96V245.554H407.924V280.772H432.906V314.759H407.924V356.138H435.69V391.357H380.986Z" fill="#35372E"/>
<path d="M442.953 391.357V210.643H483.587C490.359 210.643 495.476 212.765 498.937 217.009C502.398 221.185 504.706 227.071 505.86 234.67C507.064 242.199 507.666 251.064 507.666 261.263C507.666 271.121 506.738 278.993 504.881 284.879C503.076 290.766 499.639 294.839 494.573 297.098C498.736 298.262 501.646 301.103 503.301 305.621C505.007 310.07 505.86 315.854 505.86 322.973V391.357H479.749V320.612C479.749 315.341 478.946 312.089 477.341 310.857C475.786 309.557 473.253 308.906 469.741 308.906V391.357H442.953ZM469.892 277.589H476.288C479.95 277.589 481.781 272.147 481.781 261.263C481.781 254.213 481.379 249.592 480.577 247.402C479.774 245.211 478.269 244.116 476.062 244.116H469.892V277.589Z" fill="#35372E"/>
<path d="M513.649 391.357V210.643H539.233V391.357H513.649Z" fill="#35372E"/>
<path d="M548.227 391.357V210.643H575.466L587.656 297.201V210.643H613.24V391.357H587.355L574.112 301V391.357H548.227Z" fill="#35372E"/>
<path d="M650.753 393C631.84 393 622.384 374.518 622.384 337.554V259.621C622.384 225.874 633.22 209 654.891 209C663.821 209 670.668 211.464 675.434 216.393C680.199 221.253 683.485 228.372 685.291 237.75C687.097 247.128 688 258.56 688 272.045H662.115V256.027C662.115 252.125 661.714 248.874 660.911 246.272C660.159 243.603 658.553 242.268 656.095 242.268C653.035 242.268 651.003 243.671 650 246.478C649.047 249.284 648.57 252.365 648.57 255.719V343.304C648.57 348.164 649.022 352.134 649.925 355.214C650.878 358.226 652.709 359.732 655.418 359.732C658.227 359.732 660.083 358.226 660.986 355.214C661.939 352.134 662.416 348.095 662.416 343.098V317.326H655.343V286.112H687.699V391.357H677.089L672.574 376.161C667.959 387.387 660.685 393 650.753 393Z" fill="#35372E"/>
</svg>
