<svg width="296" height="140" viewBox="0 0 296 140" fill="none" xmlns="http://www.w3.org/2000/svg">
<path fill-rule="evenodd" clip-rule="evenodd" d="M43.5104 44.4741C45.2665 46.7357 47.7987 47.8664 51.107 47.8664C54.4152 47.8664 56.9396 46.7357 58.68 44.4741C60.436 42.1948 61.314 38.9093 61.314 34.6177V12.2871C61.314 8.26266 60.4439 5.20868 58.7035 3.12521C56.9788 1.04174 54.4466 0 51.107 0C47.7673 0 45.2273 1.04174 43.4869 3.12521C41.7622 5.20868 40.8999 8.26266 40.8999 12.2871V34.6177C40.8999 38.9093 41.7701 42.1948 43.5104 44.4741ZM53.059 35.0718C53.059 37.8319 52.4318 39.212 51.1775 39.212C50.4563 39.212 49.9389 38.9004 49.6253 38.2771C49.3117 37.6361 49.1549 36.5854 49.1549 35.1252V12.207C49.1549 9.83862 49.8448 8.65442 51.2245 8.65442C52.4475 8.65442 53.059 9.81191 53.059 12.1269V35.0718ZM0 47.4391V0.427379H16.5571V9.58932H8.3256V17.0684H16.1338V26.1235H8.3256V47.4391H0ZM18.7566 47.4391V0.427379H31.4567C33.5733 0.427379 35.1726 0.97941 36.2545 2.08347C37.3363 3.16973 38.0576 4.70117 38.4182 6.6778C38.7945 8.63662 38.9826 10.9427 38.9826 13.596C38.9826 16.1603 38.6926 18.2081 38.1124 19.7396C37.548 21.271 36.474 22.3306 34.8904 22.9182C36.1917 23.2209 37.1011 23.9599 37.6185 25.1352C38.1516 26.2927 38.4182 27.7974 38.4182 29.6494V47.4391H30.2572V29.0351C30.2572 27.6639 30.0063 26.818 29.5046 26.4975C29.0186 26.1592 28.2268 25.99 27.1292 25.99V47.4391H18.7566ZM27.1763 17.8431H29.1753C30.3199 17.8431 30.8922 16.4274 30.8922 13.596C30.8922 11.7618 30.7668 10.5598 30.5159 9.98998C30.265 9.42015 29.7947 9.13523 29.1048 9.13523H27.1763V17.8431ZM64.172 47.4391V0.427379H72.6858L76.4958 22.9449V0.427379H84.4921V47.4391H76.4017L72.2624 23.9332V47.4391H64.172ZM91.2307 9.45576V47.4391H99.5093V9.45576H104.425V0.427379H86.3153V9.45576H91.2307ZM106.248 0.427379H122.805V9.50918H114.667V18.6711H122.476V27.5125H114.667V38.2771H123.346V47.4391H106.248V0.427379ZM134.13 0.427379H125.616V47.4391H133.706V23.9332L137.846 47.4391H145.936V0.427379H137.94V22.9449L134.13 0.427379ZM149.123 0.427379H160.506C163.485 0.427379 165.727 1.37117 167.233 3.25876C168.738 5.12855 169.49 7.8709 169.49 11.4858V33.4958C169.49 37.9477 168.801 41.3845 167.421 43.8063C166.057 46.2282 163.658 47.4391 160.224 47.4391H149.123V0.427379ZM157.449 39.1319H158.883C160.404 39.1319 161.165 38.2949 161.165 36.621V12.3673C161.165 10.8002 160.977 9.7941 160.6 9.34892C160.24 8.88592 159.495 8.65442 158.366 8.65442H157.449V39.1319ZM173.571 44.6077C175.045 46.8692 177.068 48 179.639 48C180.925 48 182.077 47.6973 183.096 47.0918C184.131 46.4864 184.954 45.7563 185.566 44.9015L186.483 47.4391H194.479L190.34 35.6594C191.563 31.9199 193.084 29.222 194.903 27.5659L191.634 21.7696C189.893 23.2298 188.561 25.2866 187.635 27.9399L185.378 21.4758C187.024 19.9087 188.255 18.2794 189.07 16.5876C189.901 14.8959 190.317 12.7947 190.317 10.2838C190.317 7.96884 189.94 6.05454 189.188 4.5409C188.435 3.02727 187.424 1.89649 186.154 1.14858C184.899 0.38286 183.504 0 181.967 0C180.415 0 179.036 0.400668 177.828 1.202C176.637 1.98553 175.704 3.07179 175.03 4.46077C174.355 5.84975 174.018 7.44352 174.018 9.24207C174.018 11.0228 174.261 12.759 174.747 14.4508C175.249 16.1247 175.829 17.8876 176.488 19.7396L176.676 20.2738C175.641 21.1998 174.724 22.286 173.924 23.5326C173.124 24.7791 172.497 26.3372 172.043 28.207C171.604 30.0768 171.384 32.4274 171.384 35.2588C171.384 39.2298 172.113 42.3461 173.571 44.6077ZM181.709 10.4708C181.505 9.5626 181.403 8.87702 181.403 8.41402C181.403 7.95103 181.505 7.53255 181.709 7.1586C181.928 6.76683 182.265 6.57095 182.72 6.57095C183.19 6.57095 183.567 6.84697 183.849 7.399C184.147 7.95103 184.296 8.91263 184.296 10.2838C184.296 11.6194 184.178 12.67 183.943 13.4357C183.708 14.2014 183.441 14.7624 183.143 15.1185C182.391 12.9104 181.913 11.3612 181.709 10.4708ZM180.956 41.1619C179.373 41.1619 178.581 39.5771 178.581 36.4073V34.2705C178.581 31.1541 178.84 28.9727 179.357 27.7262L183.308 38.6511C183.167 39.2387 182.9 39.8086 182.508 40.3606C182.116 40.8948 181.599 41.1619 180.956 41.1619ZM199.854 0.427379H213.895L217.822 47.4391H209.99L209.402 39.8531H204.417L203.899 47.4391H195.856L199.854 0.427379ZM205.004 32.3472H208.767L206.957 8.44073H206.58L205.004 32.3472ZM221.833 44.581C223.463 46.7713 226.003 47.8664 229.453 47.8664C232.902 47.8664 235.442 46.7713 237.073 44.581C238.703 42.3728 239.519 39.1319 239.519 34.8581V0.427379H231.475V34.4841C231.475 35.2677 231.436 36.0245 231.358 36.7546C231.295 37.4847 231.122 38.0812 230.84 38.5442C230.558 38.9894 230.095 39.212 229.453 39.212C228.825 39.212 228.371 38.9805 228.089 38.5175C227.806 38.0545 227.626 37.4669 227.548 36.7546C227.469 36.0245 227.43 35.2677 227.43 34.4841V0.427379H219.387V34.8581C219.387 39.1319 220.202 42.3728 221.833 44.581ZM242.212 0.427379H253.595C256.574 0.427379 258.816 1.37117 260.321 3.25876C261.826 5.12855 262.579 7.8709 262.579 11.4858V33.4958C262.579 37.9477 261.889 41.3845 260.509 43.8063C259.145 46.2282 256.746 47.4391 253.313 47.4391H242.212V0.427379ZM250.538 39.1319H251.972C253.493 39.1319 254.253 38.2949 254.253 36.621V12.3673C254.253 10.8002 254.065 9.7941 253.689 9.34892C253.328 8.88592 252.584 8.65442 251.455 8.65442H250.538V39.1319ZM273.104 0.427379H265.108V47.4391H273.104V0.427379ZM285.793 47.8664C282.485 47.8664 279.952 46.7357 278.196 44.4741C276.456 42.1948 275.586 38.9093 275.586 34.6177V12.2871C275.586 8.26266 276.448 5.20868 278.173 3.12521C279.913 1.04174 282.453 0 285.793 0C289.133 0 291.665 1.04174 293.389 3.12521C295.13 5.20868 296 8.26266 296 12.2871V34.6177C296 38.9093 295.122 42.1948 293.366 44.4741C291.626 46.7357 289.101 47.8664 285.793 47.8664ZM285.863 39.212C287.118 39.212 287.745 37.8319 287.745 35.0718V12.1269C287.745 9.81191 287.133 8.65442 285.91 8.65442C284.531 8.65442 283.841 9.83862 283.841 12.207V35.1252C283.841 36.5854 283.998 37.6361 284.311 38.2771C284.625 38.9004 285.142 39.212 285.863 39.212ZM70.7704 114C62.6338 114 58.5655 107.571 58.5655 94.7143V67.6071C58.5655 55.869 63.2273 50 72.551 50C76.3926 50 79.3387 50.8571 81.389 52.5714C83.4393 54.2619 84.853 56.7381 85.63 60C86.4069 63.2619 86.7954 67.2381 86.7954 71.9286H75.6588V66.3571C75.6588 65 75.4862 63.869 75.1409 62.9643C74.8171 62.0357 74.1265 61.5714 73.0689 61.5714C71.7524 61.5714 70.8783 62.0595 70.4467 63.0357C70.0366 64.0119 69.8316 65.0833 69.8316 66.25V96.7143C69.8316 98.4048 70.0258 99.7857 70.4143 100.857C70.8244 101.905 71.6121 102.429 72.7776 102.429C73.9862 102.429 74.7847 101.905 75.1732 100.857C75.5833 99.7857 75.7883 98.381 75.7883 96.6429V87.6786H72.7452V76.8214H86.6659V113.429H82.1012L80.1588 108.143C78.1732 112.048 75.0437 114 70.7704 114ZM0 50.5714V113.429H23.5357V101.179H11.5898V86.7857H22.3379V74.9643H11.5898V62.7143H22.7911V50.5714H0ZM26.6605 50.5714V113.429H37.797V82L43.4948 113.429H54.6314V50.5714H43.6243V80.6786L38.3798 50.5714H26.6605ZM101.024 50.5714H90.0173V113.429H101.024V50.5714ZM104.894 50.5714H116.613L121.858 80.6786V50.5714H132.865V113.429H121.728L116.03 82V113.429H104.894V50.5714ZM160.043 50.5714H137.252V113.429H160.788V101.179H148.842V86.7857H159.59V74.9643H148.842V62.7143H160.043V50.5714ZM163.912 50.5714H186.704V62.7143H175.502V74.9643H186.25V86.7857H175.502V101.179H187.448V113.429H163.912V50.5714ZM208.055 50.5714H190.573V113.429H202.098V84.75C203.609 84.75 204.699 84.9762 205.368 85.4286C206.058 85.8571 206.404 86.9881 206.404 88.8214V113.429H217.637V89.6429C217.637 87.1667 217.27 85.1548 216.537 83.6071C215.824 82.0357 214.573 81.0476 212.781 80.6429C214.961 79.8571 216.439 78.4405 217.216 76.3929C218.015 74.3452 218.414 71.6071 218.414 68.1786C218.414 64.631 218.155 61.5476 217.637 58.9286C217.141 56.2857 216.148 54.2381 214.659 52.7857C213.17 51.3095 210.968 50.5714 208.055 50.5714ZM204.914 73.8571H202.163V62.2143H204.817C205.767 62.2143 206.414 62.5952 206.76 63.3571C207.105 64.119 207.278 65.7262 207.278 68.1786C207.278 71.9643 206.49 73.8571 204.914 73.8571ZM220.989 50.5714H231.996V113.429H220.989V50.5714ZM247.584 50.5714H235.865V113.429H247.002V82L252.699 113.429H263.836V50.5714H252.829V80.6786L247.584 50.5714ZM279.975 114C271.838 114 267.77 107.571 267.77 94.7143V67.6071C267.77 55.869 272.432 50 281.756 50C285.597 50 288.543 50.8571 290.594 52.5714C292.644 54.2619 294.058 56.7381 294.835 60C295.612 63.2619 296 67.2381 296 71.9286H284.863V66.3571C284.863 65 284.691 63.869 284.345 62.9643C284.022 62.0357 283.331 61.5714 282.274 61.5714C280.957 61.5714 280.083 62.0595 279.651 63.0357C279.241 64.0119 279.036 65.0833 279.036 66.25V96.7143C279.036 98.4048 279.23 99.7857 279.619 100.857C280.029 101.905 280.817 102.429 281.982 102.429C283.191 102.429 283.989 101.905 284.378 100.857C284.788 99.7857 284.993 98.381 284.993 96.6429V87.6786H281.95V76.8214H295.871V113.429H291.306L289.363 108.143C287.378 112.048 284.248 114 279.975 114ZM34.6191 140C32.3781 140 30.6628 139.433 29.4733 138.299C28.2944 137.156 27.705 135.509 27.705 133.357V122.161C27.705 120.143 28.2891 118.612 29.4574 117.567C30.6363 116.522 32.3569 116 34.6191 116C36.8813 116 38.5966 116.522 39.7649 117.567C40.9438 118.612 41.5332 120.143 41.5332 122.161V133.357C41.5332 135.509 40.9385 137.156 39.7489 138.299C38.57 139.433 36.8601 140 34.6191 140ZM34.6669 135.661C35.5165 135.661 35.9414 134.969 35.9414 133.585V122.08C35.9414 120.92 35.5272 120.339 34.6987 120.339C33.7641 120.339 33.2968 120.933 33.2968 122.121V133.612C33.2968 134.344 33.403 134.871 33.6154 135.192C33.8278 135.504 34.1783 135.661 34.6669 135.661ZM0 116.214V139.786H7.59917C9.24539 139.786 10.5146 139.469 11.4067 138.835C12.2989 138.201 12.9149 137.312 13.2547 136.17C13.5946 135.027 13.7645 133.692 13.7645 132.165C13.7645 130.746 13.5468 129.545 13.1114 128.562C12.6865 127.571 11.8422 126.942 10.5783 126.674C11.5448 126.46 12.2617 126.009 12.729 125.321C13.2069 124.634 13.4459 123.737 13.4459 122.629V121.598C13.4459 119.679 12.9786 118.304 12.044 117.473C11.12 116.634 9.63836 116.214 7.59917 116.214H0ZM6.62737 125.094H5.48033V119.857H6.65923C7.45579 119.857 7.85407 120.237 7.85407 120.996V123.366C7.85407 123.839 7.77973 124.246 7.63103 124.585C7.48234 124.924 7.14779 125.094 6.62737 125.094ZM8.22049 133.893C8.22049 135.054 7.49296 135.634 6.03792 135.634C5.89985 135.634 5.71398 135.625 5.48033 135.607V128.777H6.51585C7.17434 128.777 7.62041 128.973 7.85407 129.366C8.09835 129.75 8.22049 130.277 8.22049 130.946V133.893ZM15.2863 116.214V139.786H26.6611V135.768H20.8941V116.214H15.2863ZM43.2461 132.768C43.2461 137.589 45.2482 140 49.2522 140C51.3551 140 52.8951 139.268 53.8722 137.804L54.8281 139.786H57.0744V126.058H50.224V130.129H51.7215V133.491C51.7215 134.143 51.6206 134.67 51.4188 135.071C51.2277 135.464 50.8347 135.661 50.2399 135.661C49.6664 135.661 49.2787 135.464 49.0769 135.071C48.8858 134.67 48.7902 134.152 48.7902 133.518V122.094C48.7902 121.656 48.8911 121.254 49.0929 120.888C49.3053 120.522 49.7354 120.339 50.3833 120.339C50.9037 120.339 51.2436 120.513 51.4029 120.862C51.5728 121.201 51.6578 121.625 51.6578 122.134V124.223H57.1381C57.1381 122.464 56.9469 120.973 56.5646 119.75C56.1823 118.527 55.4866 117.598 54.4776 116.964C53.4686 116.321 52.0189 116 50.1284 116C45.5402 116 43.2461 118.201 43.2461 122.603V132.768ZM58.6121 139.772V135.781H64.3154V139.772H58.6121ZM66.108 116.214V139.786H71.6202V130.451H73.8984C75.449 130.451 76.6438 130.161 77.4829 129.58C78.3325 129 78.922 128.183 79.2512 127.129C79.5805 126.067 79.7451 124.821 79.7451 123.393C79.7451 121.911 79.5486 120.634 79.1556 119.562C78.7627 118.491 78.1095 117.665 77.1961 117.085C76.2933 116.504 75.0666 116.214 73.516 116.214H66.108ZM71.9388 126.219H71.6202V120.513H72.2415C73.0912 120.513 73.6275 120.759 73.8506 121.25C74.0842 121.732 74.201 122.42 74.201 123.312C74.201 124.268 74.0842 124.991 73.8506 125.482C73.6169 125.973 72.9797 126.219 71.9388 126.219ZM81.2031 139.786V116.214H86.779V124.638H89.4236V116.214H94.9995V139.786H89.4236V129.098H86.779V139.786H81.2031ZM96.9036 116.214V139.786H102.32V116.214H96.9036ZM104.224 139.786V116.214H109.832V135.768H115.599V139.786H104.224ZM116.866 116.214V139.786H128.241V135.768H122.474V116.214H116.866ZM129.253 139.786V116.214H134.669V139.786H129.253ZM136.574 116.214V139.786H142.086V130.451H144.364C145.915 130.451 147.109 130.161 147.948 129.58C148.798 129 149.387 128.183 149.717 127.129C150.046 126.067 150.211 124.821 150.211 123.393C150.211 121.911 150.014 120.634 149.621 119.562C149.228 118.491 148.575 117.665 147.662 117.085C146.759 116.504 145.532 116.214 143.982 116.214H136.574ZM142.404 126.219H142.086V120.513H142.707C143.557 120.513 144.093 120.759 144.316 121.25C144.55 121.732 144.667 122.42 144.667 123.312C144.667 124.268 144.55 124.991 144.316 125.482C144.082 125.973 143.445 126.219 142.404 126.219ZM151.669 139.786V116.214H157.276V135.768H163.044V139.786H151.669ZM165.633 138.353C166.737 139.451 168.458 140 170.794 140C173.131 140 174.851 139.451 175.956 138.353C177.061 137.246 177.613 135.621 177.613 133.478V116.214H172.164V133.29C172.164 133.683 172.138 134.062 172.085 134.429C172.042 134.795 171.925 135.094 171.734 135.326C171.543 135.549 171.23 135.661 170.794 135.661C170.369 135.661 170.061 135.545 169.87 135.312C169.679 135.08 169.557 134.786 169.504 134.429C169.451 134.062 169.424 133.683 169.424 133.29V116.214H163.976V133.478C163.976 135.621 164.528 137.246 165.633 138.353ZM181.843 139.786V120.741H178.513V116.214H190.78V120.741H187.451V139.786H181.843ZM192.015 116.214V139.786H197.591V129.098H200.236V139.786H205.812V116.214H200.236V124.638H197.591V116.214H192.015ZM207.971 139.786V116.214H219.186V120.768H213.674V125.362H218.963V129.795H213.674V135.192H219.553V139.786H207.971ZM221.09 116.214V139.786H226.762V129.031C227.505 129.031 228.042 129.116 228.371 129.286C228.711 129.446 228.881 129.871 228.881 130.558V139.786H234.409V130.866C234.409 129.938 234.228 129.183 233.867 128.603C233.517 128.013 232.901 127.643 232.019 127.491C233.092 127.196 233.819 126.665 234.202 125.897C234.595 125.129 234.791 124.103 234.791 122.817C234.791 121.487 234.664 120.33 234.409 119.348C234.165 118.357 233.676 117.589 232.943 117.045C232.21 116.491 231.127 116.214 229.693 116.214H221.09ZM228.148 124.946H226.794V120.58H228.1C228.567 120.58 228.886 120.723 229.056 121.009C229.226 121.295 229.311 121.897 229.311 122.817C229.311 124.237 228.923 124.946 228.148 124.946ZM235.946 139.772V135.781H241.65V139.772H235.946ZM245.067 138.406C246.31 139.469 247.946 140 249.974 140C252.205 140 253.941 139.536 255.184 138.607C256.426 137.67 257.048 136.165 257.048 134.094V129.634H251.408V133.879C251.408 134.406 251.307 134.835 251.105 135.165C250.914 135.496 250.58 135.661 250.102 135.661C249.677 135.661 249.348 135.527 249.114 135.259C248.891 134.991 248.779 134.531 248.779 133.879V122.08C248.779 121.554 248.87 121.134 249.05 120.821C249.231 120.5 249.581 120.339 250.102 120.339C250.548 120.339 250.877 120.464 251.089 120.714C251.302 120.955 251.408 121.429 251.408 122.134V125.616H256.984V121.545C256.984 120.304 256.687 119.277 256.092 118.464C255.497 117.643 254.679 117.027 253.638 116.616C252.608 116.205 251.429 116 250.102 116C247.669 116 245.912 116.607 244.828 117.821C243.756 119.036 243.219 120.786 243.219 123.071V133.946C243.219 135.857 243.835 137.344 245.067 138.406ZM265.292 140C263.051 140 261.336 139.433 260.147 138.299C258.968 137.156 258.378 135.509 258.378 133.357V122.161C258.378 120.143 258.962 118.612 260.131 117.567C261.31 116.522 263.03 116 265.292 116C267.555 116 269.27 116.522 270.438 117.567C271.617 118.612 272.206 120.143 272.206 122.161V133.357C272.206 135.509 271.612 137.156 270.422 138.299C269.243 139.433 267.533 140 265.292 140ZM265.34 135.661C266.19 135.661 266.615 134.969 266.615 133.585V122.08C266.615 120.92 266.2 120.339 265.372 120.339C264.437 120.339 263.97 120.933 263.97 122.121V133.612C263.97 134.344 264.076 134.871 264.289 135.192C264.501 135.504 264.852 135.661 265.34 135.661ZM274.142 116.214V139.786H279.209V122.804L282.618 139.786H287.652L290.87 122.804V139.786H296V116.214H287.381L285.039 130.585L282.682 116.214H274.142Z" fill="#1f2937"/>
</svg>
